<svg xmlns="http://www.w3.org/2000/svg" xmlns:xlink="http://www.w3.org/1999/xlink" width="139.475" height="124.757" viewBox="0 0 139.475 124.757">
  <defs>
    <radialGradient id="radial-gradient" cx="-0.122" cy="-0.561" r="2.011" gradientTransform="matrix(-0.889, 0, 0, 1, -0.162, 0)" gradientUnits="objectBoundingBox">
      <stop offset="0" stop-color="#7db201"/>
      <stop offset="0.28" stop-color="#88b917"/>
      <stop offset="0.52" stop-color="#84b60f"/>
      <stop offset="0.704" stop-color="#7db201"/>
      <stop offset="0.752" stop-color="#7db201"/>
      <stop offset="0.838" stop-color="#7db201"/>
      <stop offset="0.951" stop-color="#fff"/>
      <stop offset="0.996" stop-color="#fff"/>
      <stop offset="1" stop-color="#ff526b"/>
    </radialGradient>
    <linearGradient id="linear-gradient" x1="0.76" y1="0.888" x2="0.151" y2="-0.19" gradientUnits="objectBoundingBox">
      <stop offset="0.076" stop-color="#fff"/>
      <stop offset="1" stop-color="#fff" stop-opacity="0"/>
    </linearGradient>
  </defs>
  <g id="Group_122" data-name="Group 122" style="isolation: isolate">
    <path id="Path_79" data-name="Path 79" d="M203.767,179.412h0l6.087,6.22a22.538,22.538,0,0,1,5.668,10.314,29.219,29.219,0,0,1,.865,7.706h0l-6.087-6.219a29.826,29.826,0,0,0-.584-6.488q-.254-1.233-.614-2.406a23.316,23.316,0,0,0-2.455-5.445,21.282,21.282,0,0,0-2.88-3.681Z" transform="translate(-134.125 -172.523)" fill="#1c1c1a"/>
    <path id="Path_80" data-name="Path 80" d="M157.247,283.968c1.22-.481,12.288-4.913,24.561-11.111,17.9-9.037,39.851-22.2,50.8-43.882.347-.688.668-1.373.978-2.056.053-.117.107-.235.159-.351q.5-1.122.925-2.236c.044-.116.09-.231.133-.347q.416-1.1.768-2.2c.037-.116.074-.232.11-.349q.342-1.1.62-2.177c.028-.108.054-.217.081-.325.18-.728.341-1.452.478-2.169.018-.093.033-.184.05-.277.134-.732.249-1.459.338-2.177.008-.066.014-.132.022-.2.088-.744.156-1.481.2-2.208l0-.077q.059-1.107.045-2.186c0-.028,0-.057,0-.085-.011-.705-.049-1.4-.105-2.086-.006-.064-.009-.128-.015-.192-.059-.661-.142-1.311-.244-1.953-.013-.082-.024-.164-.038-.246-.1-.624-.231-1.238-.376-1.842-.022-.091-.043-.182-.066-.272q-.224-.891-.507-1.747c-.03-.091-.06-.183-.091-.273q-.291-.849-.637-1.663c-.036-.086-.074-.171-.112-.256-.239-.542-.5-1.073-.773-1.589-.039-.073-.081-.145-.121-.218-.287-.522-.591-1.03-.917-1.523-.037-.056-.076-.11-.114-.166-.339-.5-.7-.992-1.075-1.463-.027-.033-.055-.064-.082-.1-.4-.489-.816-.963-1.259-1.414l6.087,6.219c.442.452.86.925,1.259,1.414l.082.1c.379.471.735.96,1.075,1.463.038.056.077.11.114.167.326.492.629,1,.916,1.521.04.074.083.146.122.22q.415.774.772,1.589c.037.085.075.169.112.255q.347.814.637,1.664c.031.091.061.181.091.273q.283.858.507,1.747c.023.091.044.181.066.273.145.6.272,1.216.376,1.84.014.083.025.166.039.249.1.641.184,1.29.243,1.95.006.064.009.129.015.193.057.686.095,1.38.105,2.086,0,.027,0,.057,0,.085q.013,1.077-.045,2.182l0,.081c-.04.726-.108,1.462-.2,2.2-.008.067-.014.133-.022.2-.089.718-.2,1.444-.338,2.175-.017.093-.032.186-.05.28-.137.717-.3,1.439-.477,2.166-.027.109-.053.218-.082.328q-.277,1.081-.62,2.174c-.036.117-.074.235-.111.352q-.352,1.093-.768,2.2c-.044.116-.089.233-.134.349q-.43,1.113-.924,2.234c-.019.044-.035.087-.055.132-.032.074-.072.148-.105.222-.309.683-.631,1.368-.977,2.054-10.946,21.683-32.895,34.846-50.8,43.882-12.273,6.2-23.341,10.63-24.561,11.111l-24.212,9.6-6.087-6.219Z" transform="translate(-104.126 -175.036)" fill="#1c1c1a"/>
    <path id="Path_81" data-name="Path 81" d="M146.6,202.073c10.243-20.29,33.145-34.023,51.155-30.675,12.333,2.293,19.176,12,18.978,24.407,11.284-10.349,25.909-16.062,38.243-13.769,18.009,3.348,24.306,22.509,14.064,42.8-10.946,21.683-32.895,34.845-50.8,43.882-12.273,6.2-23.341,10.63-24.561,11.111l-24.212,9.6-11.2-16.187a138.94,138.94,0,0,1-10.09-17.553C141.692,242.121,135.652,223.757,146.6,202.073Z" transform="translate(-140.557 -170.895)" fill="url(#radial-gradient)"/>
    <path id="Path_82" data-name="Path 82" d="M146.6,202.073c10.243-20.29,33.145-34.023,51.155-30.675,12.333,2.293,19.176,12,18.978,24.407,11.284-10.349,25.909-16.062,38.243-13.769,18.009,3.348,24.306,22.509,14.064,42.8-10.946,21.683-32.895,34.845-50.8,43.882-12.273,6.2-23.341,10.63-24.561,11.111l-24.212,9.6-11.2-16.187a138.94,138.94,0,0,1-10.09-17.553C141.692,242.121,135.652,223.757,146.6,202.073Zm1.8,53.514a138.919,138.919,0,0,0,10.071,17.519l11.089,16.029,24.033-9.533c.481-.19,11.906-4.721,24.541-11.1,17.865-9.018,39.771-22.143,50.691-43.775,5.6-11.1,6.437-22.278,2.285-30.663-3.133-6.328-8.727-10.4-16.176-11.788a30.423,30.423,0,0,0-5.555-.5c-10.637,0-22.779,5.312-32.48,14.208l-.415.381.009-.564c.2-12.714-6.993-21.973-18.779-24.164a30.467,30.467,0,0,0-5.553-.5c-17.192,0-36.26,13.057-45.341,31.044C135.915,223.773,141.934,242.063,148.395,255.587Z" transform="translate(-140.557 -170.895)" fill="url(#linear-gradient)" style="mix-blend-mode: overlay;isolation: isolate"/>
  </g>
</svg>
